<?xml version="1.0" encoding="utf-8" ?>
<svg baseProfile="full" height="1024" version="1.1" width="1024" xmlns="http://www.w3.org/2000/svg" xmlns:ev="http://www.w3.org/2001/xml-events" xmlns:xlink="http://www.w3.org/1999/xlink"><defs /><polygon fill="blue" points="825,800 825,819 826,820 826,821 829,824 837,824 838,823 839,823 839,822 840,821 841,822 841,823 842,824 845,824 845,800 840,800 841,801 841,813 840,814 840,817 837,820 832,820 830,818 830,817 829,816 829,800" /><polygon fill="blue" points="125,800 125,824 129,824 129,800" /><polygon fill="blue" points="914,799 913,800 911,800 910,801 909,801 907,803 907,805 906,806 906,807 907,808 907,810 908,811 909,811 910,812 911,812 912,813 915,813 916,814 919,814 921,816 921,818 918,821 913,821 911,819 911,818 910,817 906,817 906,819 907,820 907,821 909,823 910,823 911,824 920,824 921,823 922,823 925,820 925,814 924,813 924,812 923,812 922,811 921,811 920,810 917,810 916,809 913,809 911,807 911,805 913,803 919,803 920,804 920,806 925,806 925,805 924,804 924,803 923,802 923,801 922,801 921,800 919,800 918,799" /><polygon fill="blue" points="890,799 889,800 887,800 886,801 885,801 883,803 883,805 882,806 883,807 884,806 885,807 886,806 887,806 887,805 889,803 894,803 896,805 896,806 897,807 897,808 896,809 893,809 892,810 887,810 886,811 885,811 882,814 882,821 885,824 893,824 896,821 897,822 897,823 898,824 901,824 901,804 897,800 895,800 894,799" /><polygon fill="blue" points="807,799 806,800 804,800 803,801 802,801 800,803 800,804 799,805 799,808 800,809 800,810 801,811 802,811 803,812 804,812 805,813 808,813 809,814 811,814 812,815 813,815 814,816 814,819 813,820 812,820 811,821 806,821 804,819 804,818 803,817 799,817 799,820 802,823 803,823 804,824 813,824 814,823 815,823 818,820 818,814 817,813 817,812 816,812 815,811 814,811 813,810 810,810 809,809 806,809 804,807 804,805 806,803 811,803 813,805 813,806 818,806 818,805 817,804 817,803 814,800 812,800 811,799" /><polygon fill="blue" points="783,799 782,800 780,800 777,803 776,802 776,800 773,800 773,824 777,824 777,808 778,807 778,806 780,804 781,804 782,803 785,803 788,806 788,807 789,808 789,824 793,824 793,806 792,805 792,803 789,800 787,800 786,799" /><polygon fill="blue" points="753,799 752,800 750,800 748,802 747,802 746,803 746,804 745,805 745,806 744,807 744,817 745,818 745,819 749,823 750,823 751,824 760,824 763,821 764,821 764,820 765,819 765,818 766,817 766,814 767,813 767,811 766,810 766,807 765,806 765,804 762,801 761,801 760,800 758,800 757,799" /><polygon fill="blue" points="727,799 726,800 724,800 722,802 721,802 720,803 720,804 719,805 719,806 718,807 718,809 717,810 717,814 718,815 718,818 720,820 720,821 722,823 723,823 724,824 733,824 734,823 735,823 738,820 738,819 739,818 739,816 738,816 737,817 736,816 734,818 734,819 733,820 732,820 731,821 727,821 726,820 725,820 723,818 723,817 722,816 722,808 723,807 723,806 726,803 731,803 732,804 733,804 734,805 734,807 739,807 739,806 738,805 738,804 734,800 732,800 731,799" /><polygon fill="blue" points="688,799 687,800 685,800 683,802 682,802 682,803 680,805 680,807 679,808 679,817 680,818 680,819 682,821 682,822 683,822 685,824 689,824 690,825 691,824 695,824 699,820 699,819 700,818 700,817 696,817 695,818 695,819 694,820 693,820 692,821 688,821 687,820 686,820 685,819 685,818 684,817 684,815 683,814 684,813 700,813 701,812 700,811 700,806 699,805 699,804 698,803 698,802 697,801 696,801 695,800 694,800 693,799" /><polygon fill="blue" points="621,799 620,800 618,800 617,801 616,801 614,803 614,804 613,805 613,806 612,807 612,817 613,818 613,819 614,820 614,821 615,822 616,822 617,823 618,823 619,824 627,824 628,823 629,823 633,819 633,818 634,817 634,807 633,806 633,805 632,804 632,803 630,801 629,801 628,800 626,800 625,799" /><polygon fill="blue" points="578,799 577,800 576,800 573,803 572,802 572,800 569,800 569,822 568,823 569,824 573,824 573,808 574,807 574,806 576,804 577,804 578,803 580,803 581,804 582,804 584,806 584,808 585,809 585,824 589,824 589,806 588,805 588,803 585,800 583,800 582,799" /><polygon fill="blue" points="551,799 550,800 548,800 547,801 546,801 544,803 544,804 543,805 543,806 542,807 542,817 543,818 543,819 544,820 544,821 546,823 547,823 548,824 558,824 562,820 562,819 563,818 563,817 559,817 555,821 551,821 550,820 549,820 548,819 548,818 547,817 547,816 546,815 546,814 547,813 563,813 563,807 562,806 562,804 558,800 557,800 556,799" /><polygon fill="blue" points="512,799 511,800 509,800 507,802 506,801 506,800 502,800 502,824 506,824 506,810 507,809 507,807 508,806 508,805 509,804 510,804 511,803 514,803 517,806 517,824 521,824 521,811 522,810 522,807 523,806 523,805 524,804 525,804 526,803 529,803 532,806 532,823 533,824 537,824 537,807 536,806 536,804 535,803 535,802 533,800 531,800 530,799 527,799 526,800 524,800 522,802 522,803 521,804 519,802 519,801 518,801 517,800 516,800 515,799" /><polygon fill="blue" points="485,799 484,800 481,800 478,803 478,804 477,805 477,806 482,806 482,805 484,803 489,803 491,805 491,807 492,808 491,809 487,809 486,810 482,810 481,811 480,811 477,814 477,816 476,817 476,818 477,819 477,821 479,823 480,823 481,824 488,824 491,821 492,822 492,824 496,824 496,805 495,804 495,803 492,800 490,800 489,799" /><polygon fill="blue" points="433,799 432,800 430,800 427,803 426,802 426,800 423,800 423,824 427,824 427,808 428,807 428,806 430,804 431,804 432,803 435,803 438,806 438,807 439,808 439,824 443,824 443,806 442,805 442,803 439,800 437,800 436,799" /><polygon fill="blue" points="405,799 404,800 402,800 401,801 400,801 399,802 399,803 397,805 397,806 396,807 396,817 397,818 397,819 398,820 398,821 400,823 401,823 402,824 411,824 412,823 413,823 416,820 416,819 417,818 417,817 413,817 409,821 405,821 404,820 403,820 402,819 402,818 401,817 401,815 400,814 401,813 417,813 417,806 416,805 416,804 414,802 414,801 413,801 412,800 411,800 410,799" /><polygon fill="blue" points="378,799 377,800 375,800 370,805 370,806 369,807 369,816 370,817 370,818 371,819 371,820 374,823 376,823 377,824 381,824 382,823 383,823 384,822 385,822 386,821 387,822 387,825 386,826 386,828 384,830 382,830 381,831 378,831 375,828 375,827 370,827 370,828 371,829 371,831 373,833 374,833 375,834 385,834 386,833 387,833 390,830 390,828 391,827 391,800 388,800 388,801 387,802 386,802 384,800 382,800 381,799" /><polygon fill="blue" points="352,799 351,800 349,800 345,804 345,807 346,806 349,806 352,803 356,803 359,806 359,809 358,810 357,809 356,809 355,810 349,810 347,812 346,812 345,813 345,814 344,815 344,820 346,822 346,823 347,823 348,824 355,824 356,823 357,823 359,821 360,822 360,824 363,824 363,804 362,803 362,802 361,801 360,801 359,800 357,800 356,799" /><polygon fill="blue" points="315,799 314,800 313,800 312,801 311,801 309,803 309,804 308,805 308,806 307,807 307,818 309,820 309,821 311,823 312,823 313,824 322,824 323,823 324,823 326,821 326,820 327,819 327,817 323,817 323,818 320,821 316,821 315,820 314,820 312,818 312,817 311,816 311,814 312,813 328,813 328,807 327,806 327,805 326,804 326,803 323,800 321,800 320,799" /><polygon fill="blue" points="250,799 249,800 247,800 243,804 243,806 247,806 250,803 255,803 257,805 257,809 256,810 255,809 253,809 252,810 248,810 247,811 246,811 245,812 244,812 244,813 243,814 243,815 242,816 242,820 244,822 244,823 245,823 246,824 254,824 257,821 258,822 258,824 262,824 262,806 261,805 261,803 258,800 255,800 254,799" /><polygon fill="blue" points="212,799 211,800 210,800 208,802 207,802 206,801 206,800 202,800 202,803 203,804 203,805 202,806 202,823 203,824 206,824 207,823 207,807 211,803 214,803 217,806 217,811 218,812 218,822 217,823 218,824 222,824 222,808 223,807 223,806 226,803 229,803 232,806 232,808 233,809 233,824 237,824 237,806 236,805 236,803 233,800 232,800 231,799 227,799 226,800 225,800 224,801 223,801 222,802 222,803 221,804 220,803 220,802 218,800 216,800 215,799" /><polygon fill="blue" points="184,799 183,800 182,800 181,801 180,801 177,804 177,806 176,807 176,810 175,811 175,813 176,814 176,817 177,818 177,819 178,820 178,821 180,823 181,823 182,824 191,824 192,823 193,823 195,821 195,820 196,819 196,817 192,817 192,818 190,820 189,820 188,821 185,821 184,820 183,820 181,818 181,817 180,816 180,813 181,812 182,813 197,813 197,807 196,806 196,804 192,800 190,800 189,799" /><polygon fill="blue" points="143,799 142,800 139,800 135,804 135,809 138,812 139,812 140,813 144,813 145,814 147,814 150,817 150,818 147,821 142,821 139,818 139,817 135,817 135,820 139,824 149,824 150,823 151,823 153,821 153,820 154,819 154,814 151,811 150,811 149,810 146,810 145,809 142,809 141,808 140,808 139,807 139,805 141,803 147,803 149,805 149,806 153,806 153,803 150,800 148,800 147,799" /><polygon fill="blue" points="868,792 867,793 866,793 865,794 865,795 866,796 866,799 865,800 862,800 862,803 865,803 866,804 866,821 869,824 877,824 877,820 876,820 875,821 873,821 872,820 871,820 870,819 870,804 871,803 877,803 877,800 871,800 870,799 870,792" /><polygon fill="blue" points="599,792 598,793 597,793 597,799 596,800 593,800 593,803 596,803 597,804 597,815 596,816 597,817 597,821 598,822 598,823 599,823 600,824 608,824 608,820 606,820 605,821 604,821 603,820 602,820 601,819 601,804 602,803 608,803 608,800 602,800 601,799 601,792" /><polygon fill="blue" points="163,792 162,793 161,793 161,799 160,800 157,800 157,803 160,803 161,804 161,821 164,824 172,824 173,823 172,822 172,820 170,820 169,821 168,820 167,820 165,818 165,804 166,803 172,803 172,800 166,800 165,799 165,792" /><polygon fill="blue" points="106,790 105,791 102,791 101,792 100,792 97,795 97,796 96,797 96,803 97,804 97,805 98,806 99,806 101,808 104,808 105,809 108,809 109,810 111,810 115,814 115,816 114,817 114,818 112,820 111,820 110,821 105,821 104,820 103,820 100,817 100,815 99,814 96,814 95,815 95,816 96,817 96,819 97,820 97,821 99,823 100,823 101,824 104,824 105,825 109,825 110,824 113,824 114,823 115,823 118,820 118,818 119,817 119,812 118,811 118,810 117,809 117,808 116,808 114,806 112,806 111,805 108,805 107,804 104,804 103,803 102,803 101,802 101,801 100,800 100,799 101,798 101,797 103,795 105,795 106,794 109,794 110,795 111,795 113,797 113,798 114,799 114,800 118,800 119,799 118,798 118,796 117,795 117,794 115,792 114,792 113,791 109,791 108,790" /><polygon fill="blue" points="853,789 852,790 853,791 853,824 857,824 857,789" /><polygon fill="blue" points="669,789 669,801 668,802 666,800 665,800 664,799 660,799 659,800 657,800 652,805 652,807 651,808 651,816 652,817 652,819 657,824 665,824 666,823 667,823 669,821 670,822 670,823 671,824 673,824 673,789" /><polygon fill="blue" points="467,789 467,800 466,801 465,801 464,800 463,800 462,799 458,799 457,800 455,800 451,804 451,805 450,806 450,807 449,808 449,816 450,817 450,819 455,824 463,824 464,823 465,823 467,821 468,822 468,824 471,824 471,789" /><polygon fill="blue" points="297,789 297,801 296,802 294,800 293,800 292,799 288,799 287,800 285,800 284,801 283,801 281,803 281,804 280,805 280,806 279,807 279,817 280,818 280,819 281,820 281,821 283,823 284,823 285,824 293,824 294,823 295,823 297,821 298,822 298,824 301,824 301,789" /><polygon fill="blue" points="125,789 124,790 124,794 125,794 126,795 128,795 130,793 130,790 129,789" /><polygon fill="blue" points="620,529 619,530 619,744 659,744 659,596 660,595 661,596 661,598 662,599 662,600 663,601 663,603 664,604 664,605 665,606 665,607 666,608 666,609 667,610 667,611 668,612 668,613 669,614 669,615 670,616 670,618 671,619 671,620 672,621 672,622 673,623 673,624 674,625 674,626 675,627 675,628 676,629 676,631 677,632 677,633 678,634 678,635 679,636 679,637 680,638 680,639 681,640 681,641 682,642 682,644 683,645 683,646 684,647 684,648 685,649 685,650 686,651 686,652 687,653 687,655 688,656 688,657 689,658 689,659 690,660 690,661 691,662 691,663 692,664 692,665 693,666 693,668 694,669 694,670 695,671 695,672 696,673 696,674 697,675 697,676 698,677 698,678 699,679 699,681 700,682 700,683 701,684 701,685 702,686 702,687 703,688 703,689 704,690 704,691 705,692 705,694 706,695 706,696 707,697 707,698 708,699 708,700 709,701 709,702 710,703 710,705 711,706 711,707 712,708 712,709 713,710 742,710 743,709 743,708 744,707 744,706 745,705 745,704 746,703 746,702 747,701 747,700 748,699 748,697 749,696 749,695 750,694 750,693 751,692 751,691 752,690 752,689 753,688 753,687 754,686 754,685 755,684 755,682 756,681 756,680 757,679 757,678 758,677 758,676 759,675 759,674 760,673 760,672 761,671 761,670 762,669 762,668 763,667 763,666 764,665 764,663 765,662 765,661 766,660 766,659 767,658 767,657 768,656 768,655 769,654 769,653 770,652 770,650 771,649 771,648 772,647 772,646 773,645 773,644 774,643 774,642 775,641 775,640 776,639 776,638 777,637 777,636 778,635 778,633 779,632 779,631 780,630 780,629 781,628 781,627 782,626 782,625 783,624 783,623 784,622 784,621 785,620 785,619 786,618 786,617 787,616 787,614 788,613 788,612 789,611 789,610 790,609 790,608 791,607 791,606 792,605 792,604 793,603 793,602 794,601 794,599 795,598 795,597 796,596 797,597 797,744 837,744 837,530 787,530 786,531 786,532 785,533 785,535 784,536 784,537 783,538 783,539 782,540 782,541 781,542 781,544 780,545 780,546 779,547 779,548 778,549 778,550 777,551 777,553 776,554 776,555 775,556 775,557 774,558 774,559 773,560 773,561 772,562 772,564 771,565 771,566 770,567 770,568 769,569 769,570 768,571 768,572 767,573 767,575 766,576 766,577 765,578 765,579 764,580 764,581 763,582 763,584 762,585 762,586 761,587 761,588 760,589 760,590 759,591 759,592 758,593 758,595 757,596 757,597 756,598 756,599 755,600 755,601 754,602 754,603 753,604 753,606 752,607 752,608 751,609 751,610 750,611 750,612 749,613 749,615 748,616 748,617 747,618 747,619 746,620 746,621 745,622 745,623 744,624 744,626 743,627 743,628 742,629 742,630 741,631 741,632 740,633 740,635 739,636 739,637 738,638 738,639 737,640 737,641 736,642 736,643 735,644 735,646 734,647 734,648 733,649 733,650 732,651 732,652 731,653 731,655 730,656 730,657 729,658 728,658 727,657 727,656 726,655 726,653 725,652 725,651 724,650 724,649 723,648 723,647 722,646 722,645 721,644 721,642 720,641 720,640 719,639 719,638 718,637 718,636 717,635 717,634 716,633 716,632 715,631 715,629 714,628 714,627 713,626 713,625 712,624 712,623 711,622 711,621 710,620 710,618 709,617 709,616 708,615 708,614 707,613 707,612 706,611 706,609 705,608 705,607 704,606 704,605 703,604 703,603 702,602 702,601 701,600 701,598 700,597 700,596 699,595 699,594 698,593 698,592 697,591 697,590 696,589 696,587 695,586 695,585 694,584 694,583 693,582 693,581 692,580 692,579 691,578 691,576 690,575 690,574 689,573 689,572 688,571 688,570 687,569 687,568 686,567 686,565 685,564 685,563 684,562 684,561 683,560 683,559 682,558 682,557 681,556 681,555 680,554 680,552 679,551 679,550 678,549 678,548 677,547 677,546 676,545 676,543 675,542 675,541 674,540 674,539 673,538 673,537 672,536 672,535 671,534 671,533 670,532 670,530 669,529 668,529 667,530 666,529 632,529 631,530 630,530 629,529 628,530 627,530 626,529 625,529 624,530 622,530 621,529" /><polygon fill="blue" points="188,529 188,744 232,744 232,654 233,653 324,653 325,654 325,744 368,744 368,529 325,529 325,614 324,615 233,615 232,614 232,529" /><polygon fill="blue" points="493,528 492,529 484,529 483,530 479,530 478,531 476,531 475,532 473,532 472,533 471,533 470,534 469,534 468,535 467,535 465,537 464,537 462,539 461,539 457,543 456,543 455,544 455,545 451,549 451,550 449,552 449,553 448,554 448,555 447,556 447,557 446,558 446,559 445,560 445,562 444,563 444,566 443,567 443,570 442,571 442,590 443,591 443,595 444,596 444,599 445,600 445,602 446,603 446,604 447,605 447,607 448,608 448,609 449,610 449,611 451,613 451,614 452,615 452,616 454,618 454,619 456,621 456,622 459,625 459,626 458,627 457,627 456,628 455,628 454,629 453,629 452,630 451,630 449,632 448,632 446,634 445,634 442,637 441,637 428,650 428,651 426,653 426,654 424,656 424,657 423,658 423,659 421,661 421,663 420,664 420,665 419,666 419,668 418,669 418,671 417,672 417,677 416,678 416,692 417,693 417,697 418,698 418,701 419,702 419,704 420,705 420,706 421,707 421,709 423,711 423,712 424,713 424,714 425,715 425,716 427,718 427,719 431,723 431,724 438,731 439,731 442,734 443,734 445,736 446,736 447,737 448,737 449,738 450,738 451,739 452,739 453,740 454,740 455,741 457,741 458,742 460,742 461,743 463,743 464,744 468,744 469,745 475,745 476,746 496,746 497,745 504,745 505,744 508,744 509,743 512,743 513,742 515,742 516,741 518,741 519,740 520,740 521,739 522,739 523,738 524,738 525,737 526,737 527,736 528,736 530,734 531,734 533,732 534,732 537,729 538,729 538,728 539,727 543,731 543,732 547,736 547,737 552,742 552,743 553,744 599,744 599,743 595,739 595,738 591,734 591,733 587,729 587,728 582,723 582,722 578,718 578,717 574,713 574,712 570,708 570,707 566,703 566,702 567,701 567,700 569,698 569,697 570,696 570,695 571,694 571,693 572,692 572,691 574,689 574,687 575,686 575,685 576,684 576,683 577,682 577,681 578,680 578,678 579,677 579,676 580,675 580,673 581,672 581,670 582,669 582,666 583,665 583,663 584,662 584,658 585,657 585,653 586,652 586,647 587,646 587,637 555,637 555,639 554,640 554,646 553,647 553,651 552,652 552,655 551,656 551,658 550,659 550,661 549,662 549,664 548,665 548,666 547,667 547,669 546,670 546,671 544,673 543,673 541,671 541,670 537,666 537,665 532,660 532,659 528,655 528,654 524,650 524,649 520,645 520,644 514,638 514,637 513,636 513,635 514,634 515,634 516,633 517,633 518,632 519,632 520,631 521,631 522,630 523,630 524,629 525,629 527,627 528,627 532,623 533,623 537,619 537,618 541,614 541,613 543,611 543,610 544,609 544,608 546,606 546,605 547,604 547,602 548,601 548,600 549,599 549,597 550,596 550,593 551,592 551,589 552,588 552,567 551,566 551,563 550,562 550,560 549,559 549,558 548,557 548,555 546,553 546,552 545,551 545,550 542,547 542,546 536,540 535,540 532,537 531,537 530,536 529,536 527,534 526,534 525,533 523,533 522,532 521,532 520,531 517,531 516,530 513,530 512,529 504,529 503,528 495,528 494,529" /><polygon fill="blue" points="583,392 582,393 581,393 579,395 578,395 577,396 577,397 575,399 575,400 574,401 574,404 573,405 573,407 574,408 574,410 575,411 575,412 577,414 577,415 578,415 580,417 581,417 582,418 584,418 585,419 588,419 589,418 591,418 592,417 593,417 594,416 595,416 598,413 598,412 599,411 599,410 600,409 600,401 599,400 599,399 597,397 597,396 596,395 595,395 593,393 592,393 591,392" /><polygon fill="blue" points="455,307 454,308 453,308 452,309 451,309 447,313 447,314 445,316 445,317 443,319 443,320 442,321 442,322 441,323 441,325 440,326 440,328 439,329 439,332 438,333 438,336 437,337 437,345 436,346 436,363 437,364 437,372 438,373 440,373 441,374 442,374 444,376 445,376 447,378 448,378 453,383 453,384 456,387 456,388 457,389 457,390 458,391 458,392 459,393 459,394 460,395 460,396 461,397 461,399 462,400 462,402 463,403 463,406 464,407 464,410 465,411 465,416 466,417 466,424 467,425 467,449 466,450 466,454 465,455 465,456 464,457 464,458 458,464 456,464 455,465 455,466 454,467 453,467 451,469 446,469 445,468 444,468 441,465 441,464 440,463 440,459 441,458 441,457 444,454 445,454 446,453 450,453 451,454 453,454 454,453 455,453 455,452 456,451 456,445 457,444 457,436 456,435 456,422 455,421 455,415 454,414 454,410 453,409 453,407 452,406 452,403 451,402 451,401 450,400 450,398 449,397 449,396 448,395 448,394 446,392 446,391 440,385 439,385 438,384 437,384 436,383 435,383 434,382 430,382 429,383 427,383 426,384 425,384 421,388 420,388 419,389 419,390 416,393 416,394 415,395 415,396 414,397 414,398 413,399 413,400 412,401 412,403 411,404 411,406 410,407 410,410 409,411 409,416 408,417 408,423 407,424 407,450 408,451 408,452 410,454 412,454 413,453 417,453 418,454 419,454 422,457 422,458 423,459 423,463 422,464 422,465 419,468 418,468 417,469 413,469 412,468 410,468 408,466 408,465 407,464 406,464 405,463 404,463 400,459 400,458 399,457 399,456 398,455 398,454 397,453 397,447 396,446 396,430 397,429 397,419 398,418 398,413 399,412 399,408 400,407 400,404 401,403 401,401 402,400 402,398 403,397 403,395 404,394 404,393 405,392 405,391 406,390 406,389 408,387 408,386 417,377 418,377 420,375 421,375 422,374 423,374 424,373 425,373 426,372 427,372 426,371 426,341 427,340 427,334 428,333 428,329 429,328 429,326 430,325 430,323 431,322 431,321 432,320 431,320 430,321 429,321 428,322 426,322 425,323 424,323 423,324 422,324 421,325 420,325 419,326 418,326 417,327 416,327 415,328 414,328 413,329 412,329 410,331 409,331 407,333 406,333 404,335 403,335 400,338 399,338 394,343 393,343 393,344 392,345 391,345 389,347 389,348 382,355 382,356 379,359 379,360 377,362 377,363 376,364 376,365 375,366 375,367 373,369 373,370 372,371 372,373 371,374 371,375 370,376 370,378 369,379 369,381 368,382 368,384 367,385 367,390 366,391 366,488 367,489 367,491 369,493 369,494 370,495 371,495 373,497 374,497 375,498 377,498 378,499 644,499 645,498 647,498 648,497 649,497 654,492 654,491 655,490 655,489 656,488 656,390 655,389 655,385 654,384 654,381 653,380 653,378 652,377 652,375 651,374 651,373 650,372 650,370 648,368 648,366 646,364 646,363 645,362 645,361 643,359 643,358 640,355 640,354 634,348 634,347 629,342 628,342 623,337 622,337 619,334 618,334 616,332 615,332 613,330 612,330 610,328 609,328 608,327 607,327 606,326 605,326 604,325 603,325 602,324 601,324 600,323 599,323 598,322 597,322 596,321 594,321 593,320 592,320 591,319 590,319 591,320 591,321 592,322 592,324 593,325 593,327 594,328 594,330 595,331 595,335 596,336 596,340 597,341 597,351 598,352 598,365 597,366 597,377 596,378 596,380 597,381 598,381 599,382 600,382 601,383 602,383 609,390 609,391 610,392 610,393 611,394 611,395 612,396 612,398 613,399 613,411 612,412 612,414 611,415 611,416 610,417 610,418 609,419 609,420 602,427 601,427 599,429 598,429 597,430 596,430 595,431 593,431 592,432 581,432 580,431 578,431 577,430 576,430 575,429 574,429 573,428 572,428 565,421 565,420 564,419 564,418 563,417 563,416 562,415 562,414 561,413 561,409 560,408 560,403 561,402 561,399 562,398 562,396 563,395 563,394 564,393 564,392 565,391 565,390 572,383 573,383 574,382 575,382 576,381 577,381 578,380 580,380 581,379 583,379 584,378 586,378 586,369 587,368 587,346 586,345 586,339 585,338 585,335 584,334 584,331 583,330 583,328 582,327 582,326 581,325 581,323 579,321 579,320 578,319 578,318 576,316 576,315 570,309 569,309 567,307 565,307 564,308 564,309 563,310 563,312 562,313 562,314 561,315 561,317 560,318 560,319 559,320 559,321 558,322 558,323 557,324 557,326 556,327 556,328 555,329 555,330 554,331 554,332 553,333 553,334 552,335 552,336 551,337 551,338 550,339 550,340 549,341 549,342 548,343 548,344 547,345 547,346 545,348 545,349 544,350 544,351 543,352 543,353 541,355 541,356 540,357 540,358 539,359 539,360 537,362 537,363 535,365 535,366 534,367 534,368 532,370 532,371 531,372 531,373 529,375 529,376 527,378 527,379 525,381 525,382 523,384 523,385 522,386 522,387 520,389 520,390 519,391 519,392 517,394 517,395 515,397 515,398 513,400 513,401 510,404 509,403 509,402 508,401 508,400 506,398 506,397 505,396 505,395 503,393 503,392 501,390 501,389 500,388 500,387 498,385 498,384 496,382 496,381 494,379 494,378 493,377 493,376 491,374 491,373 489,371 489,370 488,369 488,368 486,366 486,365 484,363 484,362 483,361 483,360 482,359 482,358 480,356 480,355 479,354 479,353 477,351 477,350 476,349 476,348 475,347 475,346 474,345 474,344 473,343 473,342 472,341 472,340 470,338 470,336 468,334 468,332 467,331 467,330 466,329 466,328 465,327 465,326 464,325 464,323 463,322 463,321 462,320 462,319 461,318 461,317 460,316 460,315 459,314 459,312 458,311 458,310 457,309 457,308 456,307" /><polygon fill="blue" points="500,145 499,146 495,146 494,147 491,147 490,148 487,148 486,149 484,149 483,150 482,150 481,151 479,151 478,152 477,152 476,153 475,153 474,154 473,154 471,156 470,156 469,157 468,157 466,159 465,159 461,163 460,163 449,174 449,175 447,177 447,178 445,180 445,181 443,183 443,184 442,185 442,186 441,187 441,188 440,189 440,190 439,191 439,192 438,193 438,194 437,195 437,197 436,198 436,200 435,201 435,203 434,204 434,208 433,209 433,214 432,215 432,233 433,234 433,240 434,241 434,244 435,245 435,248 436,249 436,251 437,252 437,253 438,254 438,256 439,257 439,258 440,259 440,260 441,261 441,262 442,263 442,264 444,266 444,267 445,268 445,269 447,271 447,272 451,276 451,277 459,285 460,285 464,289 465,289 467,291 468,291 470,293 471,293 472,294 473,294 474,295 475,295 477,297 479,297 480,298 481,298 482,299 484,299 485,300 487,300 488,301 490,301 491,302 494,302 495,303 500,303 501,304 522,304 523,303 528,303 529,302 532,302 533,301 535,301 536,300 538,300 539,299 541,299 542,298 543,298 544,297 545,297 546,296 547,296 548,295 549,295 550,294 551,294 552,293 553,293 555,291 556,291 559,288 560,288 565,283 566,283 570,279 570,278 574,274 574,273 577,270 577,269 579,267 579,266 580,265 580,264 581,263 581,262 582,261 582,260 583,259 583,258 584,257 584,256 585,255 585,253 586,252 586,250 587,249 587,247 588,246 588,243 589,242 589,238 590,237 590,226 591,225 591,223 590,222 590,212 589,211 589,207 588,206 588,203 587,202 587,200 586,199 586,197 585,196 585,194 584,193 584,192 583,191 583,190 582,189 582,188 581,187 581,186 580,185 580,184 578,182 578,181 576,179 576,178 573,175 573,174 561,162 560,162 557,159 556,159 554,157 553,157 551,155 550,155 549,154 548,154 547,153 546,153 545,152 544,152 543,151 541,151 540,150 539,150 538,149 536,149 535,148 533,148 532,147 529,147 528,146 523,146 522,145" /></svg>